<svg xmlns="http://www.w3.org/2000/svg" xmlns:xlink="http://www.w3.org/1999/xlink" width="100" zoomAndPan="magnify" viewBox="0 0 75 74.999997" height="100" preserveAspectRatio="xMidYMid meet" version="1.0"><path fill="rgb(0%, 0%, 0%)" d="M 67.179688 75 L 7.820312 75 C 3.507812 75 0 71.492188 0 67.179688 L 0 17.039062 C 0 12.730469 3.507812 9.222656 7.820312 9.222656 L 15.597656 9.222656 C 16.230469 9.222656 16.835938 9.476562 17.28125 9.929688 L 30.964844 23.988281 L 35.46875 16.160156 C 36.304688 14.707031 38.695312 14.707031 39.53125 16.160156 L 44.035156 23.988281 L 57.71875 9.929688 C 58.164062 9.476562 58.769531 9.222656 59.402344 9.222656 L 67.179688 9.222656 C 71.492188 9.222656 75 12.730469 75 17.039062 L 75 67.179688 C 75 71.492188 71.492188 75 67.179688 75 Z M 7.820312 13.910156 C 6.089844 13.910156 4.6875 15.3125 4.6875 17.039062 L 4.6875 67.179688 C 4.6875 68.910156 6.089844 70.3125 7.820312 70.3125 L 67.179688 70.3125 C 68.910156 70.3125 70.3125 68.910156 70.3125 67.179688 L 70.3125 17.039062 C 70.3125 15.3125 68.910156 13.910156 67.179688 13.910156 L 60.390625 13.910156 L 45.230469 29.480469 C 44.71875 30.007812 43.984375 30.261719 43.261719 30.171875 C 42.53125 30.082031 41.886719 29.652344 41.519531 29.015625 L 37.5 22.027344 L 33.480469 29.015625 C 33.113281 29.652344 32.46875 30.082031 31.738281 30.171875 C 31.011719 30.261719 30.28125 30.007812 29.769531 29.480469 L 14.609375 13.910156 Z M 7.820312 13.910156 " fill-opacity="1" fill-rule="nonzero"/><path fill="rgb(0%, 0%, 0%)" d="M 37.5 19.671875 C 36.964844 19.671875 36.429688 19.488281 35.992188 19.125 L 18.136719 4.140625 C 17.382812 3.503906 17.101562 2.46875 17.441406 1.542969 C 17.777344 0.617188 18.65625 0 19.644531 0 L 55.355469 0 C 56.34375 0 57.222656 0.617188 57.558594 1.542969 C 57.898438 2.46875 57.617188 3.503906 56.863281 4.140625 L 39.007812 19.125 C 38.570312 19.488281 38.035156 19.671875 37.5 19.671875 Z M 26.082031 4.6875 L 37.5 14.269531 L 48.917969 4.6875 Z M 26.082031 4.6875 " fill-opacity="1" fill-rule="nonzero"/><path fill="rgb(0%, 0%, 0%)" d="M 31.449219 30.191406 C 30.820312 30.191406 30.210938 29.9375 29.769531 29.480469 L 13.917969 13.199219 C 13.253906 12.515625 13.070312 11.496094 13.453125 10.625 L 17.496094 1.402344 C 17.792969 0.726562 18.390625 0.230469 19.109375 0.0625 C 19.824219 -0.105469 20.585938 0.0742188 21.148438 0.546875 L 39.007812 15.53125 C 39.875 16.261719 40.097656 17.511719 39.53125 18.496094 L 33.480469 29.015625 C 33.113281 29.652344 32.46875 30.082031 31.738281 30.171875 C 31.644531 30.183594 31.546875 30.191406 31.449219 30.191406 Z M 18.378906 11.0625 L 30.964844 23.988281 L 34.488281 17.863281 L 20.53125 6.148438 Z M 18.378906 11.0625 " fill-opacity="1" fill-rule="nonzero"/><path fill="rgb(0%, 0%, 0%)" d="M 43.550781 30.191406 C 43.453125 30.191406 43.355469 30.183594 43.261719 30.171875 C 42.53125 30.082031 41.886719 29.652344 41.519531 29.015625 L 35.46875 18.496094 C 34.902344 17.511719 35.125 16.261719 35.992188 15.53125 L 53.851562 0.546875 C 54.414062 0.0742188 55.171875 -0.105469 55.890625 0.0625 C 56.609375 0.230469 57.207031 0.726562 57.503906 1.402344 L 61.546875 10.625 C 61.929688 11.496094 61.746094 12.515625 61.082031 13.199219 L 45.230469 29.480469 C 44.789062 29.9375 44.179688 30.191406 43.550781 30.191406 Z M 40.511719 17.863281 L 44.035156 23.988281 L 56.621094 11.0625 L 54.46875 6.148438 Z M 49.601562 32.746094 L 49.601562 43.480469 C 49.601562 47.894531 53.183594 51.476562 57.597656 51.476562 C 62.015625 51.476562 65.597656 47.894531 65.597656 43.480469 L 65.597656 32.746094 Z M 49.601562 32.746094 " fill-opacity="1" fill-rule="nonzero"/><path fill="rgb(0%, 0%, 0%)" d="M 39.84375 32.746094 C 39.84375 33.054688 39.785156 33.355469 39.664062 33.640625 C 39.546875 33.929688 39.378906 34.183594 39.15625 34.402344 C 38.9375 34.621094 38.683594 34.789062 38.398438 34.910156 C 38.109375 35.027344 37.8125 35.089844 37.5 35.089844 C 37.1875 35.089844 36.890625 35.027344 36.601562 34.910156 C 36.316406 34.789062 36.0625 34.621094 35.84375 34.402344 C 35.621094 34.183594 35.453125 33.929688 35.335938 33.640625 C 35.214844 33.355469 35.15625 33.054688 35.15625 32.746094 C 35.15625 32.433594 35.214844 32.132812 35.335938 31.847656 C 35.453125 31.558594 35.621094 31.308594 35.84375 31.085938 C 36.0625 30.867188 36.316406 30.699219 36.601562 30.578125 C 36.890625 30.460938 37.1875 30.402344 37.5 30.402344 C 37.8125 30.402344 38.109375 30.460938 38.398438 30.578125 C 38.683594 30.699219 38.9375 30.867188 39.15625 31.085938 C 39.378906 31.308594 39.546875 31.558594 39.664062 31.847656 C 39.785156 32.132812 39.84375 32.433594 39.84375 32.746094 Z M 39.84375 32.746094 " fill-opacity="1" fill-rule="nonzero"/><path fill="rgb(0%, 0%, 0%)" d="M 39.84375 42.921875 C 39.84375 43.234375 39.785156 43.53125 39.664062 43.820312 C 39.546875 44.109375 39.378906 44.359375 39.15625 44.582031 C 38.9375 44.800781 38.683594 44.96875 38.398438 45.089844 C 38.109375 45.207031 37.8125 45.265625 37.5 45.265625 C 37.1875 45.265625 36.890625 45.207031 36.601562 45.089844 C 36.316406 44.96875 36.0625 44.800781 35.84375 44.582031 C 35.621094 44.359375 35.453125 44.109375 35.335938 43.820312 C 35.214844 43.53125 35.15625 43.234375 35.15625 42.921875 C 35.15625 42.613281 35.214844 42.3125 35.335938 42.027344 C 35.453125 41.738281 35.621094 41.484375 35.84375 41.265625 C 36.0625 41.046875 36.316406 40.878906 36.601562 40.757812 C 36.890625 40.640625 37.1875 40.578125 37.5 40.578125 C 37.8125 40.578125 38.109375 40.640625 38.398438 40.757812 C 38.683594 40.878906 38.9375 41.046875 39.15625 41.265625 C 39.378906 41.484375 39.546875 41.738281 39.664062 42.027344 C 39.785156 42.3125 39.84375 42.613281 39.84375 42.921875 Z M 39.84375 42.921875 " fill-opacity="1" fill-rule="nonzero"/><path fill="rgb(0%, 0%, 0%)" d="M 39.84375 53.101562 C 39.84375 53.414062 39.785156 53.710938 39.664062 54 C 39.546875 54.285156 39.378906 54.539062 39.15625 54.757812 C 38.9375 54.980469 38.683594 55.148438 38.398438 55.269531 C 38.109375 55.386719 37.8125 55.445312 37.5 55.445312 C 37.1875 55.445312 36.890625 55.386719 36.601562 55.269531 C 36.316406 55.148438 36.0625 54.980469 35.84375 54.757812 C 35.621094 54.539062 35.453125 54.285156 35.335938 54 C 35.214844 53.710938 35.15625 53.414062 35.15625 53.101562 C 35.15625 52.792969 35.214844 52.492188 35.335938 52.207031 C 35.453125 51.917969 35.621094 51.664062 35.84375 51.445312 C 36.0625 51.226562 36.316406 51.054688 36.601562 50.9375 C 36.890625 50.816406 37.1875 50.757812 37.5 50.757812 C 37.8125 50.757812 38.109375 50.816406 38.398438 50.9375 C 38.683594 51.054688 38.9375 51.226562 39.15625 51.445312 C 39.378906 51.664062 39.546875 51.917969 39.664062 52.207031 C 39.785156 52.492188 39.84375 52.792969 39.84375 53.101562 Z M 39.84375 53.101562 " fill-opacity="1" fill-rule="nonzero"/><path fill="rgb(0%, 0%, 0%)" d="M 39.84375 63.28125 C 39.84375 63.59375 39.785156 63.890625 39.664062 64.179688 C 39.546875 64.464844 39.378906 64.71875 39.15625 64.9375 C 38.9375 65.160156 38.683594 65.328125 38.398438 65.445312 C 38.109375 65.566406 37.8125 65.625 37.5 65.625 C 37.1875 65.625 36.890625 65.566406 36.601562 65.445312 C 36.316406 65.328125 36.0625 65.160156 35.84375 64.9375 C 35.621094 64.71875 35.453125 64.464844 35.335938 64.179688 C 35.214844 63.890625 35.15625 63.59375 35.15625 63.28125 C 35.15625 62.96875 35.214844 62.671875 35.335938 62.382812 C 35.453125 62.097656 35.621094 61.84375 35.84375 61.625 C 36.0625 61.402344 36.316406 61.234375 36.601562 61.117188 C 36.890625 60.996094 37.1875 60.9375 37.5 60.9375 C 37.8125 60.9375 38.109375 60.996094 38.398438 61.117188 C 38.683594 61.234375 38.9375 61.402344 39.15625 61.625 C 39.378906 61.84375 39.546875 62.097656 39.664062 62.382812 C 39.785156 62.671875 39.84375 62.96875 39.84375 63.28125 Z M 39.84375 63.28125 " fill-opacity="1" fill-rule="nonzero"/></svg>