<svg xmlns="http://www.w3.org/2000/svg" xmlns:xlink="http://www.w3.org/1999/xlink" width="100" zoomAndPan="magnify" viewBox="0 0 75 74.999997" height="100" preserveAspectRatio="xMidYMid meet" version="1.0"><defs><g/><clipPath id="id1"><path d="M 32.652344 21.371094 L 42.402344 21.371094 L 42.402344 27.371094 L 32.652344 27.371094 Z M 32.652344 21.371094 " clip-rule="nonzero"/></clipPath></defs><rect x="-7.5" width="90" fill="rgb(100%, 100%, 100%)" y="-7.5" height="89.999996" fill-opacity="1"/><rect x="-7.5" width="90" fill="rgb(59.609985%, 34.509277%, 34.509277%)" y="-7.5" height="89.999996" fill-opacity="1"/><rect x="-7.5" width="90" fill="rgb(100%, 100%, 100%)" y="-7.5" height="89.999996" fill-opacity="1"/><rect x="-7.5" width="90" fill="rgb(59.609985%, 34.509277%, 34.509277%)" y="-7.5" height="89.999996" fill-opacity="1"/><path fill="rgb(13.328552%, 10.978699%, 7.839966%)" d="M 37.664062 17.527344 C 33.726562 17.527344 30.539062 20.714844 30.539062 24.652344 C 30.539062 28.585938 33.726562 31.777344 37.664062 31.777344 C 41.597656 31.777344 44.789062 28.585938 44.789062 24.652344 C 44.789062 20.714844 41.597656 17.527344 37.664062 17.527344 " fill-opacity="1" fill-rule="nonzero"/><g clip-path="url(#id1)"><path fill="rgb(85.099792%, 85.099792%, 85.099792%)" d="M 36.503906 22.375 C 36.503906 21.820312 36.976562 21.371094 37.554688 21.371094 C 38.136719 21.371094 38.605469 21.820312 38.605469 22.375 C 38.605469 22.878906 38.214844 23.296875 37.707031 23.367188 L 37.707031 23.472656 C 37.707031 23.550781 37.640625 23.617188 37.558594 23.617188 C 37.476562 23.617188 37.410156 23.550781 37.410156 23.472656 L 37.410156 23.234375 C 37.410156 23.15625 37.476562 23.089844 37.558594 23.089844 C 37.972656 23.089844 38.308594 22.769531 38.308594 22.375 C 38.308594 21.976562 37.96875 21.65625 37.554688 21.65625 C 37.140625 21.65625 36.804688 21.980469 36.804688 22.375 C 36.804688 22.457031 36.738281 22.519531 36.65625 22.519531 C 36.570312 22.519531 36.503906 22.457031 36.503906 22.375 Z M 42.300781 26.359375 C 42.230469 26.320312 42.136719 26.34375 42.097656 26.410156 C 42.039062 26.503906 41.964844 26.558594 41.859375 26.578125 C 41.304688 26.675781 40.183594 25.832031 39.363281 25.210938 C 39.269531 25.136719 39.171875 25.066406 39.082031 25 C 38.476562 24.546875 37.96875 24.433594 37.945312 24.429688 C 37.933594 24.425781 37.921875 24.425781 37.910156 24.425781 C 37.910156 24.425781 37.90625 24.425781 37.90625 24.425781 L 37.148438 24.425781 C 37.140625 24.425781 37.128906 24.425781 37.117188 24.429688 C 37.097656 24.433594 36.585938 24.546875 35.984375 25 C 35.894531 25.066406 35.800781 25.136719 35.703125 25.207031 C 34.882812 25.828125 33.757812 26.679688 33.203125 26.578125 C 33.097656 26.558594 33.019531 26.503906 32.964844 26.410156 C 32.921875 26.34375 32.832031 26.320312 32.757812 26.359375 C 32.6875 26.398438 32.664062 26.488281 32.707031 26.554688 C 32.808594 26.722656 32.957031 26.824219 33.144531 26.859375 C 33.191406 26.867188 33.242188 26.871094 33.292969 26.871094 C 33.984375 26.871094 34.992188 26.109375 35.886719 25.433594 C 35.984375 25.359375 36.078125 25.289062 36.167969 25.222656 C 36.660156 24.855469 37.085938 24.730469 37.167969 24.710938 L 37.894531 24.710938 C 37.976562 24.730469 38.398438 24.851562 38.898438 25.222656 C 38.988281 25.292969 39.082031 25.363281 39.179688 25.4375 C 40.074219 26.113281 41.078125 26.871094 41.769531 26.871094 C 41.820312 26.871094 41.867188 26.867188 41.914062 26.859375 C 42.105469 26.824219 42.253906 26.722656 42.355469 26.554688 C 42.394531 26.488281 42.371094 26.398438 42.300781 26.359375 Z M 40.15625 26.578125 L 39.320312 26.578125 L 39.320312 26.5 C 39.320312 26.421875 39.253906 26.359375 39.171875 26.359375 C 39.089844 26.359375 39.023438 26.421875 39.023438 26.5 L 39.023438 26.578125 L 36.113281 26.578125 L 36.113281 26.5 C 36.113281 26.421875 36.046875 26.359375 35.964844 26.359375 C 35.882812 26.359375 35.816406 26.421875 35.816406 26.5 L 35.816406 26.578125 L 34.980469 26.578125 C 34.898438 26.578125 34.828125 26.640625 34.828125 26.722656 C 34.828125 26.800781 34.898438 26.863281 34.980469 26.863281 L 35.816406 26.863281 L 35.816406 27.226562 C 35.816406 27.304688 35.882812 27.367188 35.964844 27.367188 C 36.046875 27.367188 36.113281 27.304688 36.113281 27.226562 L 36.113281 26.863281 L 39.023438 26.863281 L 39.023438 27.226562 C 39.023438 27.304688 39.089844 27.367188 39.171875 27.367188 C 39.253906 27.367188 39.320312 27.304688 39.320312 27.226562 L 39.320312 26.863281 L 40.15625 26.863281 C 40.238281 26.863281 40.308594 26.800781 40.308594 26.722656 C 40.308594 26.640625 40.238281 26.578125 40.15625 26.578125 Z M 37.210938 23.871094 C 37.128906 23.871094 37.058594 23.9375 37.058594 24.015625 C 37.058594 24.09375 37.128906 24.160156 37.210938 24.160156 L 37.90625 24.160156 C 37.988281 24.160156 38.054688 24.09375 38.054688 24.015625 C 38.054688 23.9375 37.988281 23.871094 37.90625 23.871094 Z M 37.90625 25.246094 C 37.988281 25.246094 38.054688 25.179688 38.054688 25.101562 C 38.054688 25.023438 37.988281 24.957031 37.90625 24.957031 L 37.210938 24.957031 C 37.128906 24.957031 37.058594 25.023438 37.058594 25.101562 C 37.058594 25.179688 37.128906 25.246094 37.210938 25.246094 Z M 37.90625 25.246094 " fill-opacity="1" fill-rule="nonzero"/></g><g fill="rgb(13.328552%, 10.978699%, 7.839966%)" fill-opacity="1"><g transform="translate(24.340012, 40.83305)"><g><path d="M 0.15625 -5.453125 L 2.96875 -5.453125 L 2.96875 -5.28125 L 2.140625 -5.28125 L 2.140625 -0.171875 L 2.421875 -0.171875 C 2.867188 -0.171875 3.222656 -0.304688 3.484375 -0.578125 C 3.742188 -0.847656 4.007812 -1.265625 4.28125 -1.828125 L 4.4375 -1.828125 L 4.296875 0 L 0.15625 0 L 0.15625 -0.171875 L 0.625 -0.171875 L 0.625 -5.28125 L 0.15625 -5.28125 Z M 0.15625 -5.453125 "/></g></g></g><g fill="rgb(13.328552%, 10.978699%, 7.839966%)" fill-opacity="1"><g transform="translate(28.55069, 40.83305)"><g><path d="M 3.375 -0.140625 L 2.796875 -1.828125 L 1.25 -1.828125 L 0.65625 -0.140625 L 1.234375 -0.140625 L 1.234375 0 L 0.046875 0 L 0.046875 -0.140625 L 0.40625 -0.140625 L 2.40625 -5.5 L 3.046875 -5.5 L 5 -0.140625 L 5.359375 -0.140625 L 5.359375 0 L 2.8125 0 L 2.8125 -0.140625 Z M 2.0625 -4.046875 L 1.328125 -2 L 2.734375 -2 Z M 2.0625 -4.046875 "/></g></g></g><g fill="rgb(13.328552%, 10.978699%, 7.839966%)" fill-opacity="1"><g transform="translate(33.525538, 40.83305)"><g><path d="M 4.59375 -5.3125 L 4.59375 0 L 3.515625 0 L 0.828125 -5.046875 L 0.828125 -0.140625 L 1.265625 -0.140625 L 1.265625 0 L 0.1875 0 L 0.1875 -0.140625 L 0.625 -0.140625 L 0.625 -5.3125 L 0.1875 -5.3125 L 0.1875 -5.453125 L 2.34375 -5.453125 L 4.390625 -1.546875 L 4.390625 -5.3125 L 3.953125 -5.3125 L 3.953125 -5.453125 L 5.03125 -5.453125 L 5.03125 -5.3125 Z M 4.59375 -5.3125 "/></g></g></g><g fill="rgb(13.328552%, 10.978699%, 7.839966%)" fill-opacity="1"><g transform="translate(38.313241, 40.83305)"><g><path d="M 0.1875 -5.453125 L 2.578125 -5.453125 L 2.578125 -5.3125 L 2.140625 -5.3125 L 2.140625 -0.140625 L 2.578125 -0.140625 L 2.578125 0 L 0.1875 0 L 0.1875 -0.140625 L 0.625 -0.140625 L 0.625 -5.3125 L 0.1875 -5.3125 Z M 0.1875 -5.453125 "/></g></g></g><g fill="rgb(13.328552%, 10.978699%, 7.839966%)" fill-opacity="1"><g transform="translate(40.644687, 40.83305)"><g><path d="M 0.15625 -5.453125 L 4.21875 -5.453125 L 4.296875 -3.90625 L 4.15625 -3.90625 C 3.9375 -4.4375 3.707031 -4.796875 3.46875 -4.984375 C 3.226562 -5.179688 2.878906 -5.28125 2.421875 -5.28125 L 2.140625 -5.28125 L 2.140625 -2.875 L 2.40625 -2.875 C 2.65625 -2.875 2.863281 -2.96875 3.03125 -3.15625 C 3.195312 -3.34375 3.3125 -3.585938 3.375 -3.890625 L 3.5 -3.890625 L 3.5 -1.59375 L 3.359375 -1.59375 C 3.265625 -1.976562 3.140625 -2.253906 2.984375 -2.421875 C 2.828125 -2.585938 2.609375 -2.671875 2.328125 -2.671875 L 2.140625 -2.671875 L 2.140625 -0.171875 L 2.4375 -0.171875 C 2.914062 -0.171875 3.320312 -0.3125 3.65625 -0.59375 C 3.988281 -0.882812 4.21875 -1.253906 4.34375 -1.703125 L 4.5 -1.703125 L 4.4375 0 L 0.15625 0 L 0.15625 -0.171875 L 0.625 -0.171875 L 0.625 -5.28125 L 0.15625 -5.28125 Z M 0.15625 -5.453125 "/></g></g></g><g fill="rgb(13.328552%, 10.978699%, 7.839966%)" fill-opacity="1"><g transform="translate(45.073699, 40.83305)"><g><path d="M 2.5625 -2.765625 L 2.140625 -2.765625 L 2.140625 -0.140625 L 2.65625 -0.140625 L 2.65625 0 L 0.109375 0 L 0.109375 -0.140625 L 0.625 -0.140625 L 0.625 -5.3125 L 0.109375 -5.3125 L 0.109375 -5.453125 L 2.46875 -5.453125 C 3.144531 -5.453125 3.625 -5.414062 3.90625 -5.34375 C 4.1875 -5.28125 4.382812 -5.195312 4.5 -5.09375 C 4.75 -4.894531 4.875 -4.570312 4.875 -4.125 C 4.875 -3.6875 4.765625 -3.375 4.546875 -3.1875 C 4.328125 -3 4 -2.882812 3.5625 -2.84375 L 3.5625 -2.828125 C 3.976562 -2.765625 4.269531 -2.632812 4.4375 -2.4375 C 4.601562 -2.25 4.6875 -1.929688 4.6875 -1.484375 L 4.6875 -1.0625 C 4.6875 -0.789062 4.695312 -0.609375 4.71875 -0.515625 C 4.75 -0.421875 4.8125 -0.375 4.90625 -0.375 C 5 -0.375 5.070312 -0.414062 5.125 -0.5 C 5.1875 -0.59375 5.238281 -0.773438 5.28125 -1.046875 L 5.421875 -1.03125 C 5.359375 -0.59375 5.253906 -0.296875 5.109375 -0.140625 C 4.972656 0.00390625 4.691406 0.078125 4.265625 0.078125 C 3.835938 0.078125 3.535156 -0.0195312 3.359375 -0.21875 C 3.179688 -0.414062 3.09375 -0.789062 3.09375 -1.34375 L 3.09375 -1.921875 C 3.09375 -2.210938 3.050781 -2.425781 2.96875 -2.5625 C 2.894531 -2.695312 2.757812 -2.765625 2.5625 -2.765625 Z M 2.140625 -5.3125 L 2.140625 -2.90625 L 2.390625 -2.90625 C 2.691406 -2.90625 2.910156 -2.992188 3.046875 -3.171875 C 3.191406 -3.359375 3.265625 -3.65625 3.265625 -4.0625 L 3.265625 -4.296875 C 3.265625 -4.703125 3.195312 -4.972656 3.0625 -5.109375 C 2.925781 -5.242188 2.707031 -5.3125 2.40625 -5.3125 Z M 2.140625 -5.3125 "/></g></g></g><g fill="rgb(13.328552%, 10.978699%, 7.839966%)" fill-opacity="1"><g transform="translate(25.230637, 46.533049)"><g><path d="M 2.53125 -0.078125 C 2.789062 -0.078125 3.019531 -0.144531 3.21875 -0.28125 C 3.425781 -0.425781 3.53125 -0.640625 3.53125 -0.921875 C 3.53125 -1.210938 3.421875 -1.429688 3.203125 -1.578125 C 2.984375 -1.734375 2.675781 -1.863281 2.28125 -1.96875 C 1.882812 -2.082031 1.59375 -2.179688 1.40625 -2.265625 C 1.226562 -2.347656 1.0625 -2.457031 0.90625 -2.59375 C 0.582031 -2.863281 0.421875 -3.285156 0.421875 -3.859375 C 0.421875 -4.316406 0.582031 -4.710938 0.90625 -5.046875 C 1.238281 -5.378906 1.691406 -5.546875 2.265625 -5.546875 C 2.546875 -5.546875 2.832031 -5.503906 3.125 -5.421875 C 3.425781 -5.335938 3.613281 -5.296875 3.6875 -5.296875 C 3.757812 -5.296875 3.820312 -5.347656 3.875 -5.453125 L 3.96875 -5.453125 L 4.015625 -3.875 L 3.890625 -3.875 C 3.648438 -4.332031 3.390625 -4.695312 3.109375 -4.96875 C 2.835938 -5.238281 2.539062 -5.375 2.21875 -5.375 C 1.90625 -5.375 1.660156 -5.300781 1.484375 -5.15625 C 1.304688 -5.007812 1.21875 -4.8125 1.21875 -4.5625 C 1.21875 -4.3125 1.320312 -4.117188 1.53125 -3.984375 C 1.738281 -3.859375 1.992188 -3.753906 2.296875 -3.671875 C 2.609375 -3.585938 2.8125 -3.53125 2.90625 -3.5 C 3.007812 -3.46875 3.128906 -3.425781 3.265625 -3.375 C 3.410156 -3.320312 3.53125 -3.265625 3.625 -3.203125 C 3.71875 -3.140625 3.8125 -3.0625 3.90625 -2.96875 C 4.007812 -2.882812 4.085938 -2.785156 4.140625 -2.671875 C 4.285156 -2.421875 4.359375 -2.125 4.359375 -1.78125 C 4.359375 -1.21875 4.179688 -0.765625 3.828125 -0.421875 C 3.484375 -0.0859375 3.023438 0.078125 2.453125 0.078125 C 2.148438 0.078125 1.804688 0.0390625 1.421875 -0.03125 C 1.046875 -0.113281 0.835938 -0.15625 0.796875 -0.15625 C 0.722656 -0.15625 0.648438 -0.078125 0.578125 0.078125 L 0.46875 0.078125 L 0.390625 -1.78125 L 0.53125 -1.78125 C 0.757812 -1.320312 1.050781 -0.921875 1.40625 -0.578125 C 1.757812 -0.242188 2.132812 -0.078125 2.53125 -0.078125 Z M 2.53125 -0.078125 "/></g></g></g><g fill="rgb(13.328552%, 10.978699%, 7.839966%)" fill-opacity="1"><g transform="translate(29.472504, 46.533049)"><g><path d="M 4.953125 -5.453125 L 5.03125 -3.5 L 4.890625 -3.5 C 4.660156 -4.1875 4.457031 -4.65625 4.28125 -4.90625 C 4.101562 -5.164062 3.847656 -5.296875 3.515625 -5.296875 L 3.421875 -5.296875 L 3.421875 -0.15625 L 4.078125 -0.15625 L 4.078125 0 L 1.234375 0 L 1.234375 -0.15625 L 1.90625 -0.15625 L 1.90625 -5.296875 L 1.796875 -5.296875 C 1.460938 -5.296875 1.203125 -5.160156 1.015625 -4.890625 C 0.835938 -4.628906 0.640625 -4.164062 0.421875 -3.5 L 0.28125 -3.5 L 0.359375 -5.453125 Z M 4.953125 -5.453125 "/></g></g></g><g fill="rgb(13.328552%, 10.978699%, 7.839966%)" fill-opacity="1"><g transform="translate(34.361577, 46.533049)"><g><path d="M 3.90625 -2.40625 L 3.90625 -2.984375 C 3.90625 -3.929688 3.859375 -4.53125 3.765625 -4.78125 C 3.660156 -5.070312 3.515625 -5.25 3.328125 -5.3125 C 3.210938 -5.351562 3.078125 -5.375 2.921875 -5.375 C 2.765625 -5.375 2.628906 -5.351562 2.515625 -5.3125 C 2.410156 -5.269531 2.320312 -5.195312 2.25 -5.09375 C 2.175781 -4.988281 2.113281 -4.878906 2.0625 -4.765625 C 2.019531 -4.648438 1.988281 -4.488281 1.96875 -4.28125 C 1.9375 -3.988281 1.921875 -3.546875 1.921875 -2.953125 L 1.921875 -2.390625 C 1.921875 -1.753906 1.941406 -1.300781 1.984375 -1.03125 C 2.035156 -0.769531 2.097656 -0.582031 2.171875 -0.46875 C 2.335938 -0.207031 2.585938 -0.078125 2.921875 -0.078125 C 3.335938 -0.078125 3.601562 -0.25 3.71875 -0.59375 C 3.84375 -0.945312 3.90625 -1.550781 3.90625 -2.40625 Z M 2.90625 0.078125 C 2.039062 0.078125 1.390625 -0.15625 0.953125 -0.625 C 0.523438 -1.09375 0.3125 -1.769531 0.3125 -2.65625 C 0.3125 -3.550781 0.539062 -4.253906 1 -4.765625 C 1.46875 -5.285156 2.117188 -5.546875 2.953125 -5.546875 C 3.796875 -5.546875 4.429688 -5.300781 4.859375 -4.8125 C 5.296875 -4.320312 5.515625 -3.628906 5.515625 -2.734375 C 5.515625 -1.847656 5.296875 -1.15625 4.859375 -0.65625 C 4.421875 -0.164062 3.769531 0.078125 2.90625 0.078125 Z M 2.90625 0.078125 "/></g></g></g><g fill="rgb(13.328552%, 10.978699%, 7.839966%)" fill-opacity="1"><g transform="translate(39.757496, 46.533049)"><g><path d="M 2.5625 -2.765625 L 2.140625 -2.765625 L 2.140625 -0.140625 L 2.65625 -0.140625 L 2.65625 0 L 0.109375 0 L 0.109375 -0.140625 L 0.625 -0.140625 L 0.625 -5.3125 L 0.109375 -5.3125 L 0.109375 -5.453125 L 2.46875 -5.453125 C 3.144531 -5.453125 3.625 -5.414062 3.90625 -5.34375 C 4.1875 -5.28125 4.382812 -5.195312 4.5 -5.09375 C 4.75 -4.894531 4.875 -4.570312 4.875 -4.125 C 4.875 -3.6875 4.765625 -3.375 4.546875 -3.1875 C 4.328125 -3 4 -2.882812 3.5625 -2.84375 L 3.5625 -2.828125 C 3.976562 -2.765625 4.269531 -2.632812 4.4375 -2.4375 C 4.601562 -2.25 4.6875 -1.929688 4.6875 -1.484375 L 4.6875 -1.0625 C 4.6875 -0.789062 4.695312 -0.609375 4.71875 -0.515625 C 4.75 -0.421875 4.8125 -0.375 4.90625 -0.375 C 5 -0.375 5.070312 -0.414062 5.125 -0.5 C 5.1875 -0.59375 5.238281 -0.773438 5.28125 -1.046875 L 5.421875 -1.03125 C 5.359375 -0.59375 5.253906 -0.296875 5.109375 -0.140625 C 4.972656 0.00390625 4.691406 0.078125 4.265625 0.078125 C 3.835938 0.078125 3.535156 -0.0195312 3.359375 -0.21875 C 3.179688 -0.414062 3.09375 -0.789062 3.09375 -1.34375 L 3.09375 -1.921875 C 3.09375 -2.210938 3.050781 -2.425781 2.96875 -2.5625 C 2.894531 -2.695312 2.757812 -2.765625 2.5625 -2.765625 Z M 2.140625 -5.3125 L 2.140625 -2.90625 L 2.390625 -2.90625 C 2.691406 -2.90625 2.910156 -2.992188 3.046875 -3.171875 C 3.191406 -3.359375 3.265625 -3.65625 3.265625 -4.0625 L 3.265625 -4.296875 C 3.265625 -4.703125 3.195312 -4.972656 3.0625 -5.109375 C 2.925781 -5.242188 2.707031 -5.3125 2.40625 -5.3125 Z M 2.140625 -5.3125 "/></g></g></g><g fill="rgb(13.328552%, 10.978699%, 7.839966%)" fill-opacity="1"><g transform="translate(44.903891, 46.533049)"><g><path d="M 0.15625 -5.453125 L 4.21875 -5.453125 L 4.296875 -3.90625 L 4.15625 -3.90625 C 3.9375 -4.4375 3.707031 -4.796875 3.46875 -4.984375 C 3.226562 -5.179688 2.878906 -5.28125 2.421875 -5.28125 L 2.140625 -5.28125 L 2.140625 -2.875 L 2.40625 -2.875 C 2.65625 -2.875 2.863281 -2.96875 3.03125 -3.15625 C 3.195312 -3.34375 3.3125 -3.585938 3.375 -3.890625 L 3.5 -3.890625 L 3.5 -1.59375 L 3.359375 -1.59375 C 3.265625 -1.976562 3.140625 -2.253906 2.984375 -2.421875 C 2.828125 -2.585938 2.609375 -2.671875 2.328125 -2.671875 L 2.140625 -2.671875 L 2.140625 -0.171875 L 2.4375 -0.171875 C 2.914062 -0.171875 3.320312 -0.3125 3.65625 -0.59375 C 3.988281 -0.882812 4.21875 -1.253906 4.34375 -1.703125 L 4.5 -1.703125 L 4.4375 0 L 0.15625 0 L 0.15625 -0.171875 L 0.625 -0.171875 L 0.625 -5.28125 L 0.15625 -5.28125 Z M 0.15625 -5.453125 "/></g></g></g><g fill="rgb(85.099792%, 85.099792%, 85.099792%)" fill-opacity="1"><g transform="translate(31.65929, 52.377357)"><g><path d="M 2.40625 -2.171875 L 2.40625 0 L 2 0 L 2 -1 L 1.328125 -0.03125 L 1.3125 -0.03125 L 0.671875 -0.9375 L 0.671875 0 L 0.265625 0 L 0.265625 -2.171875 L 1.328125 -0.671875 Z M 2.40625 -2.171875 "/></g></g></g><g fill="rgb(85.099792%, 85.099792%, 85.099792%)" fill-opacity="1"><g transform="translate(34.538271, 52.377357)"><g><path d="M 0.140625 -1.03125 C 0.140625 -1.226562 0.1875 -1.40625 0.28125 -1.5625 C 0.375 -1.726562 0.503906 -1.859375 0.671875 -1.953125 C 0.835938 -2.054688 1.015625 -2.109375 1.203125 -2.109375 C 1.390625 -2.109375 1.566406 -2.054688 1.734375 -1.953125 C 1.898438 -1.859375 2.03125 -1.726562 2.125 -1.5625 C 2.21875 -1.40625 2.265625 -1.226562 2.265625 -1.03125 C 2.265625 -0.84375 2.21875 -0.664062 2.125 -0.5 C 2.03125 -0.34375 1.898438 -0.21875 1.734375 -0.125 C 1.566406 -0.03125 1.390625 0.015625 1.203125 0.015625 C 1.003906 0.015625 0.820312 -0.03125 0.65625 -0.125 C 0.5 -0.21875 0.375 -0.34375 0.28125 -0.5 C 0.1875 -0.664062 0.140625 -0.84375 0.140625 -1.03125 Z M 0.5625 -1.03125 C 0.5625 -0.914062 0.585938 -0.804688 0.640625 -0.703125 C 0.703125 -0.597656 0.78125 -0.515625 0.875 -0.453125 C 0.976562 -0.398438 1.09375 -0.375 1.21875 -0.375 C 1.332031 -0.375 1.4375 -0.398438 1.53125 -0.453125 C 1.632812 -0.515625 1.710938 -0.597656 1.765625 -0.703125 C 1.816406 -0.804688 1.84375 -0.914062 1.84375 -1.03125 C 1.84375 -1.15625 1.8125 -1.269531 1.75 -1.375 C 1.695312 -1.476562 1.625 -1.554688 1.53125 -1.609375 C 1.4375 -1.671875 1.328125 -1.703125 1.203125 -1.703125 C 1.085938 -1.703125 0.976562 -1.671875 0.875 -1.609375 C 0.78125 -1.554688 0.703125 -1.476562 0.640625 -1.375 C 0.585938 -1.269531 0.5625 -1.15625 0.5625 -1.03125 Z M 0.5625 -1.03125 "/></g></g></g><g fill="rgb(85.099792%, 85.099792%, 85.099792%)" fill-opacity="1"><g transform="translate(37.146577, 52.377357)"><g><path d="M 0.265625 -2.078125 L 0.890625 -2.078125 C 1.160156 -2.078125 1.378906 -2.023438 1.546875 -1.921875 C 1.710938 -1.816406 1.835938 -1.679688 1.921875 -1.515625 C 2.003906 -1.359375 2.046875 -1.1875 2.046875 -1 C 2.046875 -0.800781 1.992188 -0.625 1.890625 -0.46875 C 1.796875 -0.320312 1.671875 -0.207031 1.515625 -0.125 C 1.359375 -0.0390625 1.1875 0 1 0 L 0.265625 0 Z M 0.921875 -0.390625 C 1.128906 -0.390625 1.296875 -0.441406 1.421875 -0.546875 C 1.546875 -0.660156 1.609375 -0.820312 1.609375 -1.03125 C 1.609375 -1.195312 1.570312 -1.328125 1.5 -1.421875 C 1.4375 -1.523438 1.359375 -1.59375 1.265625 -1.625 C 1.179688 -1.664062 1.097656 -1.6875 1.015625 -1.6875 L 0.671875 -1.6875 L 0.671875 -0.390625 Z M 0.921875 -0.390625 "/></g></g></g><g fill="rgb(85.099792%, 85.099792%, 85.099792%)" fill-opacity="1"><g transform="translate(39.5265, 52.377357)"><g><path d="M 1.296875 -0.40625 L 0.609375 -0.40625 L 0.4375 0 L 0.03125 0 L 0.96875 -2.15625 L 1 -2.15625 L 1.9375 0 L 1.453125 0 Z M 1.15625 -0.75 L 0.96875 -1.265625 L 0.75 -0.75 Z M 1.15625 -0.75 "/></g></g></g><g fill="rgb(85.099792%, 85.099792%, 85.099792%)" fill-opacity="1"><g transform="translate(41.694956, 52.377357)"><g><path d="M 1.375 -1.578125 C 1.195312 -1.679688 1.039062 -1.734375 0.90625 -1.734375 C 0.8125 -1.734375 0.738281 -1.710938 0.6875 -1.671875 C 0.644531 -1.640625 0.625 -1.585938 0.625 -1.515625 C 0.625 -1.441406 0.660156 -1.378906 0.734375 -1.328125 C 0.804688 -1.285156 0.898438 -1.242188 1.015625 -1.203125 C 1.117188 -1.160156 1.203125 -1.113281 1.265625 -1.0625 C 1.335938 -1.019531 1.394531 -0.957031 1.4375 -0.875 C 1.488281 -0.800781 1.515625 -0.703125 1.515625 -0.578125 C 1.515625 -0.460938 1.484375 -0.359375 1.421875 -0.265625 C 1.367188 -0.179688 1.289062 -0.113281 1.1875 -0.0625 C 1.082031 -0.0078125 0.953125 0.015625 0.796875 0.015625 C 0.671875 0.015625 0.546875 0 0.421875 -0.03125 C 0.304688 -0.0703125 0.195312 -0.128906 0.09375 -0.203125 L 0.265625 -0.515625 C 0.335938 -0.460938 0.421875 -0.421875 0.515625 -0.390625 C 0.609375 -0.359375 0.691406 -0.34375 0.765625 -0.34375 C 0.847656 -0.34375 0.921875 -0.359375 0.984375 -0.390625 C 1.054688 -0.429688 1.09375 -0.492188 1.09375 -0.578125 C 1.09375 -0.679688 0.988281 -0.773438 0.78125 -0.859375 C 0.664062 -0.898438 0.566406 -0.941406 0.484375 -0.984375 C 0.410156 -1.035156 0.34375 -1.097656 0.28125 -1.171875 C 0.226562 -1.253906 0.203125 -1.359375 0.203125 -1.484375 C 0.203125 -1.660156 0.257812 -1.800781 0.375 -1.90625 C 0.488281 -2.019531 0.644531 -2.082031 0.84375 -2.09375 C 1 -2.09375 1.128906 -2.070312 1.234375 -2.03125 C 1.335938 -2 1.4375 -1.953125 1.53125 -1.890625 Z M 1.375 -1.578125 "/></g></g></g></svg>